<svg width="30" height="29" viewBox="0 0 30 29" fill="none" xmlns="http://www.w3.org/2000/svg">
<g clip-path="url(#clip0_1616_1716)">
<path d="M15.8008 19.7852H18.9955V23.4248H15.8008V19.7852Z" fill="white"/>
<path d="M10.957 14.5H14.1517V18.1397H10.957V14.5Z" fill="white"/>
<path d="M10.957 19.7852H14.1517V23.4248H10.957V19.7852Z" fill="white"/>
<path d="M29.0571 7.92357V2.28738H25.4303V0.199219H23.7817V2.28738H21.5837V0.199219H19.9351V2.28738H17.7371V0.199219H16.0885V2.28738H13.8905V0.199219H12.2419V2.28738H10.0438V0.199219H8.39529V2.28738H6.19723V0.199219H4.54868V2.28738H0.921875V7.92357H29.0571Z" fill="white"/>
<path d="M6.03125 19.7852H9.31096V23.4248H6.03125V19.7852Z" fill="white"/>
<path d="M15.8008 14.5H18.9955V18.1397H15.8008V14.5Z" fill="white"/>
<path d="M20.6445 19.7852H23.9442V23.4248H20.6445V19.7852Z" fill="white"/>
<path d="M6.03125 14.5H9.31096V18.1397H6.03125V14.5Z" fill="white"/>
<path d="M20.6445 14.5H23.9442V18.1397H20.6445V14.5Z" fill="white"/>
<path d="M0.921875 9.56641V28.3287H29.0571V9.56641H0.921875ZM25.5951 25.072H4.38383V12.847H25.5951V25.072Z" fill="white"/>
</g>
<defs>
<clipPath id="clip0_1616_1716">
<rect width="28.1352" height="28.1352" fill="white" transform="translate(0.921875 0.199219)"/>
</clipPath>
</defs>
</svg>
