<svg width="35" height="34" viewBox="0 0 35 34" fill="none" xmlns="http://www.w3.org/2000/svg">
<g clip-path="url(#clip0_1616_1772)">
<path d="M17.375 15.9375C20.1256 15.9375 22.3555 13.7077 22.3555 10.957C22.3555 8.20639 20.1256 5.97656 17.375 5.97656C14.6244 5.97656 12.3945 8.20639 12.3945 10.957C12.3945 13.7077 14.6244 15.9375 17.375 15.9375Z" fill="white"/>
<path d="M17.375 0.00195312C11.9889 0.00195312 6.41797 4.10015 6.41797 10.959C6.41797 17.2245 16.1941 29.1596 16.6095 29.6596C16.7991 29.8862 17.0793 30.0176 17.375 30.0176C17.6707 30.0176 17.9509 29.8862 18.1405 29.6596C18.5559 29.1596 28.332 17.2245 28.332 10.959C28.332 4.91728 23.4167 0.00195312 17.375 0.00195312ZM17.375 17.9316C13.5307 17.9316 10.4023 14.8033 10.4023 10.959C10.4023 7.11466 13.5307 3.98633 17.375 3.98633C21.2193 3.98633 24.3477 7.11466 24.3477 10.959C24.3477 14.8033 21.2193 17.9316 17.375 17.9316Z" fill="white"/>
<path d="M24.0878 25.0918C22.1672 27.8724 20.3716 30.0926 19.6727 30.9338C19.0987 31.6195 18.2621 32.0106 17.375 32.0106C16.4879 32.0106 15.6513 31.6195 15.0813 30.9386C14.3806 30.0954 12.5839 27.8736 10.6623 25.0918C8.08377 26.003 6.41797 27.4227 6.41797 29.0223C6.41797 31.7729 11.3237 34.0028 17.375 34.0028C23.4263 34.0028 28.332 31.7729 28.332 29.0223C28.332 27.4227 26.6663 26.003 24.0878 25.0918Z" fill="white"/>
</g>
<defs>
<clipPath id="clip0_1616_1772">
<rect width="34" height="34" fill="white" transform="translate(0.375)"/>
</clipPath>
</defs>
</svg>
