<svg width="27" height="28" viewBox="0 0 27 28" fill="none" xmlns="http://www.w3.org/2000/svg">
<path d="M21.9377 24.9688H21.7943C5.2146 24.0153 2.86054 10.0259 2.53147 5.75656C2.50496 5.42461 2.54421 5.0907 2.64696 4.77394C2.74972 4.45719 2.91397 4.16382 3.1303 3.91065C3.34663 3.65748 3.61079 3.44949 3.90764 3.29858C4.20449 3.14768 4.5282 3.05683 4.86022 3.03125H9.50929C9.84726 3.03092 10.1775 3.13209 10.4574 3.32164C10.7372 3.51119 10.9536 3.78039 11.0787 4.09438L12.3612 7.25C12.4846 7.55674 12.5153 7.893 12.4493 8.21701C12.3833 8.54103 12.2235 8.8385 11.9899 9.0725L10.1927 10.8866C10.4735 12.4819 11.2374 13.9525 12.3813 15.0994C13.5252 16.2463 14.9938 17.0141 16.5883 17.2991L18.4193 15.485C18.6568 15.2539 18.9571 15.0979 19.2827 15.0364C19.6083 14.9749 19.9448 15.0106 20.2502 15.1391L23.4312 16.4131C23.7404 16.5421 24.0043 16.7603 24.1891 17.0398C24.3739 17.3192 24.4713 17.6474 24.469 17.9825V22.4375C24.469 23.1088 24.2023 23.7527 23.7276 24.2274C23.2529 24.7021 22.6091 24.9688 21.9377 24.9688ZM5.06272 4.71875C4.83895 4.71875 4.62434 4.80765 4.4661 4.96588C4.30787 5.12411 4.21897 5.33872 4.21897 5.5625V5.63C4.6071 10.625 7.09616 22.4375 21.8871 23.2812C21.9979 23.2881 22.1091 23.273 22.2141 23.2368C22.3191 23.2006 22.4159 23.1441 22.499 23.0704C22.5821 22.9967 22.6498 22.9073 22.6983 22.8074C22.7467 22.7075 22.775 22.599 22.7815 22.4881V17.9825L19.6005 16.7084L17.179 19.1131L16.774 19.0625C9.43335 18.1428 8.43772 10.8022 8.43772 10.7263L8.3871 10.3213L10.7833 7.89969L9.51772 4.71875H5.06272Z" fill="white"/>
</svg>
