<svg width="23" height="23" viewBox="0 0 23 23" fill="none" xmlns="http://www.w3.org/2000/svg">
<g clip-path="url(#clip0_1616_1643)">
<path d="M20.1467 4.28672C20.0638 4.19196 19.9621 4.11535 19.8482 4.06168C19.7342 4.00801 19.6104 3.97843 19.4845 3.97479C17.5286 3.92366 15.0537 1.83224 13.4174 1.01152C12.4066 0.50614 11.7393 0.17291 11.2382 0.0851288C11.1364 0.0703018 11.033 0.070589 10.9314 0.085981C10.4302 0.173763 9.76293 0.506992 8.75302 1.01238C7.1167 1.83224 4.64177 3.92366 2.68586 3.97479C2.55987 3.97861 2.43601 4.00827 2.32196 4.06193C2.2079 4.11558 2.10608 4.19209 2.02281 4.28672C1.85021 4.48199 1.76115 4.73722 1.7748 4.99749C2.19496 13.5396 5.2588 18.8261 10.6348 21.8984C10.7746 21.9777 10.9297 22.0186 11.0839 22.0186C11.2382 22.0186 11.3933 21.9777 11.5339 21.8984C16.9099 18.8261 19.9729 13.5396 20.3939 4.99749C20.4083 4.73726 20.3195 4.48184 20.1467 4.28672ZM15.8719 7.64628L11.3353 14.3407C11.1726 14.581 10.9169 14.7404 10.6638 14.7404C10.4098 14.7404 10.1277 14.6015 9.94958 14.4234L6.75194 11.2249C6.64754 11.1201 6.58892 10.9782 6.58892 10.8303C6.58892 10.6824 6.64754 10.5405 6.75194 10.4357L7.54197 9.64395C7.64698 9.53997 7.78878 9.48163 7.93656 9.48163C8.08434 9.48163 8.22615 9.53997 8.33115 9.64395L10.4106 11.7234L14.0233 6.39092C14.1069 6.26889 14.2354 6.18489 14.3807 6.15727C14.526 6.12965 14.6763 6.16064 14.7989 6.24348L15.7236 6.87073C15.8457 6.95419 15.9299 7.0826 15.9577 7.22792C15.9855 7.37324 15.9546 7.52364 15.8719 7.64628Z" fill="#EE3428"/>
</g>
<defs>
<clipPath id="clip0_1616_1643">
<rect width="22.1585" height="22.1585" fill="white"/>
</clipPath>
</defs>
</svg>
