<svg width="32" height="32" viewBox="0 0 32 32" fill="none" xmlns="http://www.w3.org/2000/svg">
<g clip-path="url(#clip0_1718_30)">
<path d="M31.4956 24.1741C30.4592 22.1845 28.9205 20.5929 26.9244 19.4446C26.1543 18.9994 25.4273 18.7829 24.7016 18.7829C24.4193 18.7829 24.1362 18.8169 23.8582 18.8837C22.9367 19.107 22.0516 19.5381 21.1525 20.2019C20.8686 20.4114 20.5213 20.5175 20.1202 20.5175C19.6318 20.5175 19.103 20.3499 18.7409 20.0801C16.1123 18.1205 13.8817 15.8901 11.9225 13.2618C11.5373 12.7445 11.232 11.6201 11.8002 10.8499C12.4642 9.9506 12.8954 9.06541 13.119 8.14246C13.3584 7.14786 13.1749 6.14553 12.559 5.08C11.4093 3.08147 9.81759 1.54292 7.82849 0.506631C7.18391 0.170655 6.52431 0 5.86809 0C4.77066 0 3.74353 0.476678 2.89825 1.37759C2.12124 2.20447 1.43427 3.08005 0.641609 4.14025C-0.0839403 5.11165 -0.0241222 6.23219 0.028763 7.22083L0.0300963 7.2419C0.119157 8.49585 0.587569 9.97984 1.462 11.7771C2.94127 14.8193 5.04237 17.708 7.88475 20.608C8.46862 21.2042 10.7972 23.5329 11.3938 24.1167C14.2944 26.96 17.183 29.0609 20.2247 30.54C22.0224 31.4145 23.506 31.8828 24.7603 31.972L24.7814 31.9733C25.0394 31.9871 25.3152 32 25.5836 32H25.5837C26.246 32 27.1033 31.9273 27.8619 31.3602C28.9223 30.5677 29.7981 29.8807 30.6238 29.1046C32.0716 27.7463 32.3974 25.903 31.4956 24.1741Z" fill="white"/>
</g>
<defs>
<clipPath id="clip0_1718_30">
<rect width="32" height="32" fill="white"/>
</clipPath>
</defs>
</svg>
