<svg width="172" height="264" viewBox="0 0 172 264" fill="none" xmlns="http://www.w3.org/2000/svg">
<path d="M87.9718 211.255C73.9297 218.915 58.0601 223.124 41.8298 223.492C25.5995 223.861 9.5324 220.377 -4.88641 213.362C-10.6819 210.596 -16.1463 207.256 -21.1864 203.398C-30.6051 196.355 -38.5187 187.697 -44.5085 177.884C-57.3692 156.944 -60.8543 132.058 -54.1971 108.702C-47.5399 85.3455 -31.2859 65.432 -9.01056 53.3419C13.2648 41.2519 39.7366 37.9756 64.5815 44.2339C89.4264 50.4921 110.609 65.7723 123.47 86.7129C129.506 96.5021 133.518 107.276 135.295 118.467C136.339 124.498 136.684 130.618 136.324 136.719C135.581 151.963 130.76 166.784 122.308 179.812C113.857 192.84 102.047 203.655 87.9718 211.255ZM-6.75068 57.0216C-27.9763 68.5652 -43.4651 87.5518 -49.8195 109.817C-56.174 132.082 -52.8752 155.807 -40.6469 175.788C-34.9321 185.148 -27.383 193.406 -18.3988 200.125C-13.5931 203.803 -8.38226 206.986 -2.85529 209.62C10.9081 216.282 26.2305 219.591 41.707 219.241C57.1836 218.891 72.3193 214.895 85.7263 207.618C99.1333 200.341 110.383 190.017 118.443 177.592C126.504 165.167 131.117 151.038 131.861 136.502C132.198 130.685 131.871 124.851 130.886 119.1C129.183 108.421 125.348 98.1406 119.581 88.8019C107.299 68.8439 87.0945 54.2828 63.4034 48.3152C39.7124 42.3475 14.4705 45.461 -6.78108 56.9721L-6.75068 57.0216Z" fill="#E7E7E7"/>
<path d="M81.3825 200.531C69.2448 207.143 55.5288 210.769 41.5042 211.074C27.4797 211.379 13.6 208.353 1.15015 202.275C-3.85961 199.88 -8.58774 196.997 -12.9562 193.673C-21.0983 187.583 -27.9364 180.095 -33.1071 171.608C-43.805 153.546 -46.5183 132.253 -40.6617 112.327C-34.805 92.4 -20.8479 75.4376 -1.80327 65.101C17.2414 54.7644 39.8461 51.8826 61.1313 57.0778C82.4165 62.2729 100.675 75.1283 111.965 92.8689C117.199 101.324 120.672 110.639 122.199 120.316C123.101 125.529 123.399 130.819 123.088 136.092C122.462 149.264 118.312 162.074 111.022 173.337C103.732 184.601 93.5378 193.954 81.3825 200.531ZM-0.125277 67.8142C-18.3171 77.7112 -31.5902 93.9876 -37.0328 113.073C-42.4754 132.158 -39.643 152.493 -29.157 169.618C-24.26 177.637 -17.7943 184.712 -10.1005 190.472C-5.97608 193.633 -1.50298 196.368 3.24207 198.632C15.0356 204.348 28.1674 207.187 41.4323 206.891C54.6973 206.594 67.6704 203.17 79.1614 196.933C90.6524 190.696 100.293 181.846 107.199 171.195C114.105 160.544 118.054 148.433 118.686 135.974C118.973 130.979 118.689 125.97 117.84 121.032C116.392 111.878 113.108 103.066 108.164 95.0638C97.6348 77.9592 80.317 65.4802 60.0113 60.3653C39.7056 55.2504 18.0708 57.9175 -0.145542 67.7812L-0.125277 67.8142Z" fill="#E7E7E7"/>
<path d="M81.3849 200.533C69.2935 207.103 55.6474 210.728 41.6867 211.079L38.8939 211.142L39.4603 208.635C40.935 201.536 44.0114 194.816 48.4823 188.929C52.9532 183.042 58.7146 178.124 65.3782 174.508C72.0418 170.891 79.4528 168.659 87.1114 167.963C94.7701 167.266 102.499 168.122 109.776 170.471L112.387 171.254L110.932 173.496C103.633 184.681 93.4763 193.975 81.3849 200.533ZM44.4239 206.733C56.6243 205.925 68.4691 202.517 79.0612 196.768C89.6533 191.019 98.7149 183.08 105.56 173.551C99.2271 171.885 92.6043 171.425 86.0801 172.198C79.5558 172.971 73.2615 174.961 67.5667 178.052C61.8718 181.143 56.8912 185.272 52.9171 190.197C48.9429 195.122 46.0553 200.744 44.4239 206.733Z" fill="#E7E7E7"/>
<path d="M52.1496 152.924C49.7894 154.209 47.0767 154.808 44.3547 154.643C41.6328 154.478 39.024 153.557 36.8589 151.998C34.6937 150.438 33.0695 148.31 32.1918 145.882C31.3141 143.455 31.2224 140.836 31.9284 138.36C32.6343 135.883 34.1061 133.659 36.1575 131.969C38.2088 130.279 40.7475 129.199 43.452 128.866C46.1565 128.533 48.9054 128.962 51.3503 130.099C53.7953 131.236 55.8266 133.029 57.1869 135.251C59.0064 138.224 59.4978 141.754 58.5536 145.066C57.6093 148.379 55.3064 151.205 52.1496 152.924ZM40.6171 134.146C39.0236 135.011 37.7388 136.301 36.925 137.852C36.1112 139.403 35.805 141.147 36.0452 142.862C36.2854 144.576 37.0611 146.186 38.2743 147.486C39.4875 148.787 41.0836 149.72 42.8608 150.168C44.6381 150.615 46.5167 150.557 48.259 150.001C50.0013 149.445 51.5291 148.416 52.6492 147.044C53.7693 145.672 54.4314 144.018 54.5517 142.292C54.6721 140.566 54.2453 138.845 53.3253 137.347C52.0878 135.342 50.056 133.88 47.6743 133.28C45.2926 132.68 42.7551 132.992 40.6171 134.146Z" fill="#E7E7E7"/>
<path d="M120.903 113.211L116.153 110.927C102.392 104.263 87.071 100.953 71.5956 101.302C56.1202 101.65 40.9855 105.646 27.5796 112.922C14.1737 120.198 2.92549 130.522 -5.13341 142.947C-13.1923 155.372 -17.804 169.5 -18.5455 184.035L-18.8159 189.044L-22.4384 185.356C-26.4992 181.172 -30.0623 176.585 -33.0644 171.674C-43.7623 153.612 -46.4757 132.32 -40.619 112.393C-34.7623 92.4665 -20.8053 75.5042 -1.7606 65.1676C17.2841 54.831 39.8888 51.9492 61.174 57.1443C82.4592 62.3395 100.718 75.1949 112.008 92.9355C115.003 97.8534 117.419 103.064 119.211 108.475L120.903 113.211ZM25.3436 109.281C38.5871 102.065 53.4654 97.9107 68.7521 97.1609C84.0387 96.4112 99.2961 99.0874 113.267 104.969C109.074 95.0117 102.648 86.0206 94.4258 78.608C86.2041 71.1955 76.3797 65.5355 65.6218 62.0133C54.8639 58.4911 43.425 57.1895 32.0839 58.1972C20.7427 59.2048 9.76562 62.4981 -0.0998671 67.8526C-9.96536 73.2072 -18.4876 80.4973 -25.0865 89.2267C-31.6853 97.9561 -36.2058 107.92 -38.3401 118.439C-40.4743 128.959 -40.1723 139.787 -37.4545 150.187C-34.7367 160.587 -29.6671 170.314 -22.5906 178.706C-21.0253 164.391 -15.8626 150.631 -7.5284 138.56C0.8058 126.489 12.0728 116.454 25.3436 109.281Z" fill="#E7E7E7"/>
</svg>
