<svg width="131" height="173" viewBox="0 0 131 173" fill="none" xmlns="http://www.w3.org/2000/svg">
<path d="M39.7327 172.257H25.5709C25.3203 172.256 25.0788 172.168 24.8911 172.012C24.7034 171.856 24.5821 171.641 24.5498 171.408L24.0811 167.505L21.2521 170.353C21.0822 170.527 20.85 170.637 20.5998 170.66C20.3496 170.683 20.099 170.619 19.8962 170.479L8.42952 162.611C8.22764 162.469 8.08744 162.263 8.03508 162.032C7.98273 161.8 8.02176 161.558 8.14492 161.352L10.2039 157.953L6.10267 158.724C5.85664 158.777 5.59807 158.741 5.38012 158.621C5.16217 158.501 5.00144 158.307 4.93093 158.079L0.545084 145.411C0.472324 145.184 0.48803 144.941 0.589325 144.724C0.690619 144.508 0.870861 144.333 1.09752 144.23L4.89741 142.657L1.09752 141.083C0.870861 140.981 0.690619 140.805 0.589325 140.589C0.48803 140.372 0.472324 140.129 0.545084 139.903L4.93093 127.313C5.00486 127.087 5.16548 126.894 5.38186 126.772C5.59823 126.649 5.855 126.607 6.10267 126.652L10.2039 127.439L8.14492 124.024C8.02176 123.818 7.98273 123.576 8.03508 123.345C8.08744 123.113 8.22764 122.907 8.42952 122.766L19.8962 114.897C20.0976 114.754 20.3491 114.688 20.6003 114.711C20.8516 114.734 21.0843 114.846 21.2521 115.023L24.0811 117.919L24.5498 114.016C24.5784 113.779 24.698 113.561 24.886 113.401C25.0741 113.242 25.3177 113.153 25.5709 113.15H39.7327C39.9859 113.153 40.2295 113.242 40.4176 113.401C40.6057 113.561 40.7253 113.779 40.7539 114.016L41.2393 117.919L44.0516 115.023C44.2222 114.845 44.4578 114.733 44.7119 114.709C44.9659 114.686 45.2201 114.753 45.4242 114.897L56.8742 122.766C57.079 122.905 57.2216 123.111 57.2741 123.343C57.3267 123.576 57.2856 123.819 57.1587 124.024L55.1165 127.439L59.201 126.652C59.4508 126.606 59.71 126.648 59.9291 126.77C60.1483 126.892 60.3121 127.085 60.3895 127.313L64.7586 139.903C64.8388 140.129 64.8266 140.375 64.7245 140.593C64.6224 140.811 64.4376 140.986 64.2061 141.083L60.423 142.657L64.2061 144.23C64.4376 144.327 64.6224 144.502 64.7245 144.72C64.8266 144.938 64.8388 145.184 64.7586 145.411L60.3895 158.079C60.3089 158.304 60.1437 158.493 59.9249 158.612C59.706 158.731 59.4487 158.771 59.201 158.724L55.1165 157.953L57.1587 161.352C57.2856 161.558 57.3267 161.8 57.2741 162.033C57.2216 162.265 57.079 162.471 56.8742 162.611L45.4242 170.479C45.2174 170.617 44.965 170.679 44.713 170.656C44.4609 170.633 44.2262 170.526 44.0516 170.353L41.2393 167.458L40.7539 171.36C40.7368 171.604 40.6217 171.832 40.4321 171.999C40.2424 172.165 39.9923 172.258 39.7327 172.257ZM26.4581 170.353H38.7785L39.331 165.868C39.353 165.683 39.4331 165.507 39.5613 165.364C39.6894 165.221 39.8598 165.118 40.0508 165.066L40.5697 164.877C40.759 164.816 40.963 164.81 41.1565 164.857C41.3499 164.905 41.5242 165.005 41.6578 165.144L44.922 168.481L54.8822 161.667L52.5386 157.764C52.4311 157.607 52.374 157.424 52.374 157.237C52.374 157.05 52.4311 156.867 52.5386 156.709L52.6725 156.536L52.8734 156.3C52.9853 156.145 53.1438 156.025 53.3286 155.955C53.5135 155.885 53.7162 155.868 53.9112 155.907L58.6486 156.82L62.4485 145.804L58.0627 143.931C57.8822 143.851 57.7297 143.724 57.623 143.565C57.5163 143.406 57.4598 143.222 57.46 143.034L58.5146 142.783L57.4768 142.704C57.4596 142.492 57.5053 142.28 57.6087 142.091C57.7122 141.902 57.8693 141.744 58.0627 141.634L62.4485 139.745L58.6486 128.73L53.9112 129.627C53.7179 129.663 53.5177 129.647 53.3339 129.58C53.1501 129.513 52.9904 129.398 52.8734 129.249L52.6725 128.997L52.5386 128.84C52.4331 128.682 52.3771 128.499 52.3771 128.313C52.3771 128.126 52.4331 127.943 52.5386 127.786L54.9156 123.82L44.9555 117.022L41.6913 120.358C41.5552 120.494 41.3809 120.592 41.1883 120.639C40.9958 120.687 40.7929 120.682 40.6032 120.625L40.0843 120.436C39.892 120.382 39.7211 120.275 39.593 120.129C39.465 119.984 39.3855 119.806 39.3644 119.618L38.812 115.149H26.4581L25.9225 119.618C25.9002 119.808 25.8182 119.987 25.687 120.133C25.5558 120.279 25.3813 120.384 25.1859 120.436L24.667 120.625C24.4772 120.682 24.2744 120.687 24.0819 120.639C23.8893 120.592 23.7149 120.494 23.5789 120.358L20.3314 117.022L10.2876 123.82L12.6647 127.786C12.7741 127.942 12.8324 128.125 12.8324 128.313C12.8324 128.5 12.7741 128.683 12.6647 128.84L12.5307 128.997L12.3466 129.249C12.2269 129.399 12.0642 129.515 11.8775 129.582C11.6908 129.649 11.4878 129.664 11.292 129.627L6.57138 128.73L2.75474 139.745L7.14053 141.634C7.35086 141.73 7.52199 141.888 7.62778 142.084C7.73357 142.28 7.76821 142.503 7.72643 142.72V143.05C7.72552 143.236 7.66836 143.417 7.56162 143.573C7.45489 143.729 7.30301 143.854 7.12382 143.931L2.73798 145.804L6.55463 156.82L11.2752 155.907C11.4727 155.869 11.6775 155.886 11.8648 155.956C12.0521 156.026 12.2136 156.146 12.3298 156.3L12.514 156.536L12.6479 156.709C12.7573 156.866 12.8157 157.049 12.8157 157.237C12.8157 157.424 12.7573 157.607 12.6479 157.764L10.2708 161.714L20.3147 168.528L23.5622 165.192C23.697 165.053 23.8714 164.955 24.0643 164.907C24.2573 164.86 24.4607 164.866 24.6503 164.924L25.1859 165.113C25.3758 165.166 25.545 165.271 25.6729 165.413C25.8007 165.556 25.8816 165.73 25.9058 165.915L26.4581 170.353ZM32.6183 153.247C30.4034 153.247 28.2382 152.63 26.3966 151.473C24.5549 150.316 23.1196 148.672 22.2719 146.748C21.4243 144.825 21.2026 142.708 21.6347 140.666C22.0668 138.624 23.1334 136.748 24.6996 135.275C26.2658 133.803 28.2612 132.8 30.4336 132.394C32.6059 131.988 34.8576 132.196 36.9039 132.993C38.9503 133.79 40.6993 135.139 41.9298 136.871C43.1604 138.602 43.8172 140.637 43.8172 142.72C43.804 145.5 42.6234 148.162 40.5323 150.128C38.4413 152.094 35.609 153.204 32.6518 153.216L32.6183 153.247ZM32.6183 134.127C30.8106 134.127 29.0435 134.631 27.5405 135.575C26.0374 136.52 24.866 137.861 24.1742 139.432C23.4824 141.002 23.3014 142.729 23.6541 144.396C24.0068 146.063 24.8772 147.594 26.1555 148.795C27.4337 149.997 29.0623 150.815 30.8352 151.147C32.6082 151.478 34.4459 151.308 36.116 150.658C37.7861 150.007 39.2136 148.906 40.2179 147.493C41.2222 146.08 41.7582 144.419 41.7582 142.72C41.7451 140.453 40.7814 138.283 39.0765 136.68C37.3715 135.077 35.0629 134.171 32.6518 134.159L32.6183 134.127Z" fill="#E7E7E7"/>
<path d="M144.321 97.6317H120.634C120.383 97.6299 120.142 97.5428 119.954 97.3866C119.766 97.2304 119.645 97.0156 119.613 96.782L118.659 88.9136L112.917 94.8149C112.742 94.9873 112.507 95.0949 112.255 95.118C112.003 95.1411 111.751 95.0782 111.544 94.9407L92.394 81.8479C92.1864 81.7107 92.0405 81.5058 91.9848 81.2731C91.9291 81.0403 91.9675 80.7964 92.0927 80.5889L96.2776 73.649L87.9078 75.2227C87.6579 75.2688 87.3988 75.2269 87.1796 75.105C86.9605 74.9832 86.7966 74.7898 86.7192 74.5618L79.404 53.3959C79.3238 53.1698 79.3359 52.9238 79.438 52.7056C79.5401 52.4875 79.7249 52.3128 79.9564 52.2157L87.6734 48.8953L79.9564 45.5906C79.7249 45.4934 79.5401 45.3188 79.438 45.1006C79.3359 44.8825 79.3238 44.6364 79.404 44.4103L86.7192 23.1658C86.7999 22.9407 86.9651 22.7509 87.1839 22.6322C87.4027 22.5134 87.6601 22.4737 87.9078 22.5206L96.2776 24.0943L92.0927 17.1387C91.9712 16.9303 91.9349 16.6875 91.9903 16.4557C92.0458 16.2239 92.1894 16.0191 92.394 15.8797L111.544 2.80254C111.751 2.66511 112.003 2.60221 112.255 2.62533C112.507 2.64844 112.742 2.756 112.917 2.92841L118.659 8.81396L119.613 0.945624C119.641 0.709084 119.761 0.490517 119.949 0.331102C120.137 0.171688 120.381 0.0823969 120.634 0.0800781H144.321C144.574 0.0823969 144.817 0.171688 145.005 0.331102C145.193 0.490517 145.313 0.709084 145.342 0.945624L146.313 8.81396L152.054 2.92841C152.224 2.75419 152.456 2.64505 152.707 2.62182C152.957 2.59859 153.207 2.66293 153.41 2.80254L172.577 15.8797C172.779 16.0214 172.919 16.2272 172.972 16.4588C173.024 16.6905 172.985 16.9321 172.862 17.1387L168.677 24.0943L177.047 22.5206C177.292 22.4744 177.547 22.5146 177.763 22.6335C177.979 22.7525 178.141 22.9419 178.218 23.1658L185.483 44.3473C185.559 44.5755 185.542 44.8216 185.437 45.0391C185.332 45.2567 185.146 45.4305 184.914 45.5276L177.197 48.8323L184.914 52.1528C185.146 52.2499 185.332 52.4237 185.437 52.6412C185.542 52.8588 185.559 53.1049 185.483 53.333L178.151 74.4988C178.077 74.7256 177.917 74.9187 177.7 75.0407C177.484 75.1628 177.227 75.2052 176.98 75.1598L168.61 73.5861L172.795 80.526C172.918 80.7326 172.957 80.9742 172.905 81.2058C172.852 81.4375 172.712 81.6433 172.51 81.7849L153.41 94.8149C153.22 94.9842 152.969 95.0787 152.707 95.0787C152.445 95.0787 152.194 94.9842 152.004 94.8149L146.262 88.9294L145.291 96.7977C145.26 97.022 145.145 97.2286 144.968 97.3812C144.79 97.5338 144.561 97.6226 144.321 97.6317ZM121.555 95.6961H143.4L144.387 87.6232C144.407 87.4368 144.487 87.2604 144.615 87.1171C144.744 86.9739 144.915 86.8705 145.107 86.8207L145.543 86.6633L145.978 86.5059C146.17 86.4462 146.376 86.4396 146.572 86.4871C146.768 86.5345 146.945 86.6339 147.083 86.7735L152.941 92.7848L170.619 80.6519L166.333 73.5232C166.228 73.3652 166.172 73.1825 166.172 72.996C166.172 72.8095 166.228 72.6267 166.333 72.4688L166.517 72.2485L166.886 71.7921C167.002 71.6374 167.163 71.5178 167.351 71.4479C167.538 71.3781 167.743 71.361 167.94 71.3987L176.444 72.9724L183.14 53.4431L175.44 50.1699C175.26 50.0921 175.109 49.9679 175.002 49.8118C174.895 49.6557 174.838 49.4742 174.837 49.2887C174.829 49.1892 174.829 49.0892 174.837 48.9897V48.6907C174.829 48.5912 174.829 48.4912 174.837 48.3917C174.838 48.2061 174.895 48.0246 175.002 47.8686C175.109 47.7125 175.26 47.5882 175.44 47.5104L183.341 44.1271L176.645 24.5978L168.141 26.1715C167.944 26.2113 167.738 26.1952 167.55 26.1252C167.363 26.0551 167.201 25.9344 167.087 25.7781L166.735 25.3375L166.534 25.0857C166.427 24.9284 166.37 24.7454 166.37 24.5585C166.37 24.3716 166.427 24.1886 166.534 24.0313L170.819 16.9183L153.142 4.84829L147.283 10.8597C147.144 10.9961 146.966 11.0933 146.771 11.1405C146.576 11.1877 146.371 11.1832 146.179 11.1273L145.743 10.9541L145.291 10.8125C145.101 10.757 144.933 10.6496 144.807 10.5039C144.682 10.3582 144.606 10.1808 144.588 9.99421L143.601 1.93704H121.555L120.584 9.99421C120.559 10.1807 120.478 10.3567 120.35 10.5016C120.223 10.6465 120.054 10.7543 119.864 10.8125L119.429 10.9541L118.977 11.1273C118.787 11.1837 118.584 11.1886 118.391 11.1412C118.199 11.0939 118.025 10.9963 117.889 10.8597L112.013 4.84829L94.3358 16.9183L98.6211 24.0313C98.7306 24.1879 98.789 24.3712 98.789 24.5585C98.789 24.7459 98.7306 24.9291 98.6211 25.0857L98.0688 25.7781C97.9568 25.9331 97.7983 26.0532 97.6135 26.1232C97.4287 26.1933 97.2259 26.2101 97.0309 26.1715L88.5104 24.5978L81.8145 44.1271L89.6989 47.5104C89.8835 47.5814 90.0403 47.704 90.1481 47.8617C90.2559 48.0194 90.3095 48.2044 90.3016 48.3917V49.2729C90.3106 49.4624 90.2577 49.65 90.1499 49.8103C90.0422 49.9707 89.8848 50.0962 89.6989 50.1699L81.6973 53.5533L88.3932 73.0825L96.9137 71.5089C97.107 71.4686 97.3087 71.483 97.4934 71.5502C97.678 71.6174 97.8374 71.7344 97.9516 71.8865L98.504 72.5789C98.6135 72.7355 98.6718 72.9188 98.6718 73.1061C98.6718 73.2935 98.6135 73.4767 98.504 73.6333L94.3358 80.6519L112.013 92.7219L117.889 86.7105C118.022 86.5707 118.196 86.4708 118.39 86.4232C118.583 86.3756 118.787 86.3825 118.977 86.4429L119.412 86.6003L119.864 86.7577C120.054 86.8113 120.223 86.9158 120.351 87.0583C120.479 87.2008 120.56 87.3753 120.584 87.5603L121.555 95.6961ZM132.486 71.9023C127.632 71.9023 122.887 70.5492 118.852 68.0143C114.816 65.4793 111.671 61.8763 109.813 57.6608C107.956 53.4453 107.47 48.8067 108.417 44.3316C109.364 39.8565 111.701 35.7458 115.133 32.5194C118.565 29.293 122.938 27.0958 127.698 26.2057C132.458 25.3155 137.393 25.7723 141.877 27.5185C146.361 29.2646 150.194 32.2215 152.89 36.0153C155.587 39.8092 157.026 44.2695 157.026 48.8323C157.017 54.9483 154.429 60.8114 149.828 65.1361C145.228 69.4607 138.991 71.894 132.486 71.9023ZM132.486 27.7137C128.038 27.7106 123.689 28.9479 119.989 31.2689C116.29 33.59 113.406 36.8906 111.702 40.753C109.998 44.6154 109.552 48.8662 110.419 52.9673C111.285 57.0684 113.427 60.8356 116.572 63.7923C119.717 66.7489 123.725 68.7621 128.087 69.5771C132.45 70.392 136.971 69.9722 141.08 68.3706C145.188 66.769 148.699 64.0578 151.168 60.5798C153.637 57.1019 154.954 53.0136 154.95 48.8323C154.941 43.2339 152.572 37.8671 148.361 33.9084C144.15 29.9497 138.441 27.722 132.486 27.7137Z" fill="#E7E7E7"/>
<path d="M9.26674 124.15C9.04628 124.152 8.83242 124.079 8.66408 123.945C8.55435 123.871 8.46155 123.776 8.39108 123.667C8.32061 123.558 8.27392 123.437 8.25366 123.311C8.23341 123.186 8.24002 123.057 8.27312 122.933C8.30623 122.81 8.36513 122.694 8.44646 122.592L15.7952 113.26C15.9633 113.067 16.2035 112.942 16.4667 112.91C16.7299 112.879 16.996 112.943 17.2103 113.09C17.4246 113.237 17.5708 113.456 17.619 113.701C17.6671 113.946 17.6135 114.2 17.4692 114.409L10.1204 123.756C10.0208 123.88 9.8917 123.98 9.74342 124.049C9.59513 124.117 9.43187 124.152 9.26674 124.15Z" fill="#E7E7E7"/>
<path d="M19.2727 111.418C19.0506 111.416 18.8345 111.35 18.6534 111.229C18.5449 111.153 18.4536 111.058 18.3847 110.948C18.3158 110.839 18.2707 110.718 18.252 110.592C18.2333 110.466 18.2414 110.338 18.2758 110.215C18.3103 110.092 18.3703 109.977 18.4525 109.876L22.4365 104.824C22.5161 104.721 22.6166 104.634 22.7324 104.568C22.8481 104.501 22.9767 104.458 23.1107 104.439C23.2447 104.419 23.3814 104.426 23.5128 104.457C23.6442 104.488 23.7677 104.543 23.8761 104.62C24.0941 104.773 24.239 105.001 24.2798 105.255C24.3205 105.508 24.2536 105.766 24.0938 105.973L20.1097 111.04C20.0101 111.159 19.8829 111.255 19.7378 111.32C19.5927 111.386 19.4336 111.419 19.2727 111.418Z" fill="#E7E7E7"/>
<path d="M27.2433 101.3C27.0264 101.298 26.8156 101.231 26.6406 101.111C26.5309 101.036 26.4381 100.942 26.3676 100.833C26.2972 100.724 26.2505 100.603 26.2302 100.477C26.21 100.351 26.2166 100.223 26.2497 100.099C26.2828 99.9755 26.3417 99.8594 26.4231 99.7575L42.3592 79.5044C42.5273 79.3114 42.7676 79.1862 43.0308 79.1546C43.2939 79.123 43.56 79.1873 43.7743 79.3343C43.9886 79.4814 44.1349 79.7 44.183 79.9453C44.2312 80.1906 44.1776 80.4439 44.0332 80.6532L28.1305 100.906C28.0276 101.035 27.8931 101.137 27.7385 101.206C27.584 101.274 27.414 101.307 27.2433 101.3ZM45.8578 77.6947C45.6353 77.6947 45.4186 77.6286 45.2385 77.5059C45.0205 77.3522 44.8756 77.1243 44.8349 76.8711C44.7942 76.6179 44.8609 76.3598 45.0208 76.1525L49.0049 71.0853C49.1709 70.8838 49.413 70.7501 49.6811 70.712C49.9492 70.6739 50.2226 70.7343 50.4445 70.8807C50.5548 70.9569 50.6479 71.0528 50.7186 71.163C50.7893 71.2732 50.8361 71.3954 50.8563 71.5227C50.8766 71.6499 50.8698 71.7797 50.8365 71.9045C50.8031 72.0293 50.7439 72.1466 50.6621 72.2498L46.6781 77.3013C46.5811 77.4178 46.4563 77.5113 46.3138 77.5742C46.1713 77.637 46.0152 77.6675 45.8578 77.6632V77.6947ZM53.8259 67.576C53.6303 67.579 53.4378 67.53 53.2705 67.4346C53.1033 67.3392 52.9681 67.2013 52.8806 67.0368C52.7931 66.8723 52.7569 66.6879 52.776 66.5049C52.7952 66.3219 52.869 66.1477 52.9889 66.0024L68.9419 45.7493C69.0232 45.6459 69.1254 45.5587 69.2426 45.4925C69.3598 45.4263 69.4897 45.3824 69.625 45.3634C69.7602 45.3444 69.8981 45.3506 70.0308 45.3817C70.1634 45.4128 70.2883 45.4682 70.3982 45.5447C70.5081 45.6211 70.6009 45.7172 70.6714 45.8274C70.7418 45.9376 70.7884 46.0597 70.8086 46.1869C70.8288 46.314 70.8222 46.4436 70.7891 46.5683C70.756 46.6931 70.6972 46.8104 70.6158 46.9138L54.6629 67.1669C54.5651 67.2875 54.4382 67.3846 54.2927 67.4503C54.1472 67.5159 53.9873 67.5483 53.8259 67.5446V67.576ZM72.4237 43.971C72.2012 43.9711 71.9844 43.905 71.8043 43.7822C71.5864 43.6286 71.4415 43.4006 71.4008 43.1474C71.3601 42.8942 71.4268 42.6361 71.5867 42.4288L75.5875 37.3616C75.7556 37.1686 75.9959 37.0434 76.259 37.0118C76.5222 36.9802 76.7883 37.0445 77.0026 37.1915C77.2169 37.3386 77.3631 37.5572 77.4113 37.8025C77.4594 38.0478 77.4058 38.3011 77.2615 38.5104L73.3277 43.5146C73.2221 43.6441 73.0848 43.7476 72.9273 43.8161C72.7698 43.8847 72.597 43.9162 72.4237 43.9081V43.971Z" fill="#E7E7E7"/>
<path d="M80.3917 33.774C80.1748 33.7718 79.964 33.7057 79.7891 33.5851C79.6794 33.5104 79.5865 33.4158 79.5161 33.307C79.4456 33.1982 79.3989 33.0773 79.3787 32.9513C79.3584 32.8253 79.365 32.6969 79.3981 32.5733C79.4312 32.4498 79.4902 32.3337 79.5715 32.2318L86.9202 22.8999C86.997 22.7886 87.0971 22.6932 87.2145 22.6195C87.3318 22.5458 87.4639 22.4954 87.6027 22.4713C87.7415 22.4472 87.884 22.45 88.0216 22.4795C88.1592 22.5089 88.289 22.5645 88.403 22.6427C88.5169 22.7209 88.6128 22.8202 88.6845 22.9344C88.7563 23.0486 88.8026 23.1754 88.8205 23.307C88.8384 23.4386 88.8276 23.5723 88.7887 23.6998C88.7497 23.8273 88.6836 23.946 88.5942 24.0487L81.2287 33.4435C81.125 33.5546 80.9957 33.6421 80.8507 33.6993C80.7057 33.7566 80.5488 33.7821 80.3917 33.774Z" fill="#E7E7E7"/>
<path d="M52.1178 165.71C51.959 165.712 51.802 165.679 51.6594 165.614C51.5168 165.548 51.3928 165.451 51.2976 165.332C51.2149 165.23 51.1545 165.113 51.1199 164.989C51.0852 164.865 51.077 164.735 51.0957 164.608C51.1143 164.481 51.1595 164.359 51.2286 164.248C51.2978 164.137 51.3894 164.04 51.4984 163.963L61.4083 157.023C61.6315 156.872 61.9087 156.809 62.1808 156.847C62.4528 156.885 62.6983 157.022 62.8647 157.228C63.0246 157.435 63.0914 157.693 63.0507 157.946C63.01 158.199 62.865 158.427 62.6471 158.581L52.7372 165.521C52.5571 165.644 52.3403 165.71 52.1178 165.71Z" fill="#E7E7E7"/>
<path d="M65.6477 156.188C65.489 156.191 65.3319 156.158 65.1893 156.092C65.0467 156.027 64.9227 155.93 64.8275 155.811C64.7453 155.71 64.6852 155.594 64.6508 155.472C64.6164 155.349 64.6083 155.22 64.627 155.095C64.6457 154.969 64.6908 154.847 64.7597 154.738C64.8286 154.629 64.9199 154.533 65.0284 154.457L70.452 150.649C70.5604 150.573 70.6839 150.517 70.8153 150.486C70.9467 150.455 71.0834 150.449 71.2174 150.468C71.3514 150.487 71.48 150.531 71.5958 150.597C71.7115 150.663 71.8121 150.75 71.8917 150.854C72.0533 151.059 72.1229 151.316 72.0853 151.569C72.0478 151.822 71.9061 152.051 71.6907 152.207L66.2671 156C66.087 156.122 65.8702 156.188 65.6477 156.188Z" fill="#E7E7E7"/>
<path d="M76.4944 148.651C76.3321 148.651 76.1721 148.615 76.0269 148.547C75.8818 148.478 75.7553 148.38 75.6574 148.258C75.5761 148.156 75.5172 148.04 75.4841 147.916C75.451 147.793 75.4443 147.664 75.4646 147.538C75.4849 147.412 75.5315 147.292 75.602 147.183C75.6725 147.074 75.7653 146.979 75.875 146.905L97.6366 131.719C97.7458 131.635 97.8721 131.572 98.0078 131.536C98.1435 131.499 98.2856 131.489 98.4256 131.506C98.5656 131.523 98.7004 131.566 98.8219 131.634C98.9435 131.701 99.049 131.791 99.1322 131.898C99.2155 132.006 99.2745 132.128 99.3059 132.257C99.3372 132.386 99.3402 132.52 99.3146 132.651C99.289 132.781 99.2354 132.905 99.157 133.016C99.0786 133.126 98.977 133.22 98.8586 133.292L77.1807 148.478C76.9807 148.61 76.7377 148.671 76.4944 148.651ZM101.788 131.011C101.628 131.011 101.47 130.976 101.327 130.907C101.184 130.839 101.061 130.739 100.968 130.617C100.887 130.515 100.828 130.399 100.794 130.276C100.761 130.152 100.755 130.024 100.775 129.898C100.795 129.772 100.842 129.651 100.912 129.542C100.983 129.433 101.076 129.339 101.185 129.264L106.592 125.471C106.702 125.395 106.827 125.339 106.96 125.308C107.092 125.277 107.23 125.271 107.366 125.29C107.501 125.309 107.631 125.353 107.748 125.419C107.865 125.485 107.967 125.572 108.049 125.676C108.13 125.779 108.189 125.897 108.222 126.021C108.255 126.146 108.262 126.276 108.242 126.403C108.221 126.53 108.175 126.652 108.104 126.762C108.034 126.872 107.941 126.968 107.831 127.045L102.407 130.837C102.225 130.955 102.009 131.015 101.788 131.011ZM112.635 123.425C112.473 123.424 112.314 123.387 112.169 123.319C112.024 123.251 111.897 123.153 111.798 123.032C111.639 122.825 111.572 122.567 111.612 122.314C111.653 122.06 111.798 121.832 112.016 121.679L133.694 106.493C133.802 106.416 133.926 106.361 134.057 106.33C134.189 106.299 134.325 106.293 134.459 106.312C134.593 106.331 134.722 106.374 134.838 106.441C134.953 106.507 135.054 106.594 135.134 106.697C135.295 106.903 135.365 107.16 135.327 107.413C135.29 107.666 135.148 107.895 134.933 108.051L113.171 123.237C113.001 123.32 112.81 123.358 112.619 123.347L112.635 123.425ZM137.929 105.706C137.766 105.709 137.605 105.675 137.459 105.607C137.313 105.538 137.187 105.437 137.092 105.313C136.932 105.105 136.865 104.847 136.906 104.594C136.947 104.341 137.092 104.113 137.31 103.959L142.733 100.167C142.842 100.09 142.965 100.035 143.097 100.004C143.228 99.9726 143.365 99.9663 143.499 99.9854C143.633 100.004 143.761 100.048 143.877 100.115C143.993 100.181 144.093 100.268 144.173 100.371C144.333 100.579 144.4 100.837 144.359 101.09C144.318 101.343 144.173 101.571 143.955 101.725L138.532 105.517C138.342 105.613 138.126 105.652 137.912 105.627L137.929 105.706Z" fill="#E7E7E7"/>
</svg>
