<svg width="128" height="171" viewBox="0 0 128 171" fill="none" xmlns="http://www.w3.org/2000/svg">
<path d="M60.459 76.8152C60.2506 77.437 60.243 78.103 60.4371 78.7288C60.6313 79.3547 61.0184 79.9124 61.5497 80.3314C62.081 80.7504 62.7325 81.0118 63.4219 81.0827C64.1113 81.1536 64.8076 81.0308 65.4227 80.7297C66.0378 80.4285 66.544 79.9627 66.8775 79.3911C67.211 78.8195 67.3568 78.1678 67.2962 77.5183C67.2357 76.8689 66.9716 76.2508 66.5374 75.7425C66.1033 75.2341 65.5185 74.8582 64.8571 74.6622C63.9702 74.3994 63.0085 74.4786 62.1837 74.8824C61.3589 75.2862 60.7385 75.9814 60.459 76.8152Z" fill="#E7E7E7"/>
<path d="M64.1237 98.745C64.3691 99.0968 64.7449 99.3502 65.1779 99.4561C65.611 99.562 66.0704 99.5127 66.4671 99.318C66.8637 99.1233 67.1692 98.7969 67.3242 98.4022C67.4792 98.0076 67.4726 97.5729 67.3058 97.1826C67.2119 96.9628 67.07 96.764 66.8893 96.5989C66.7086 96.4338 66.4931 96.3062 66.2568 96.2241C66.0204 96.1421 65.7685 96.1075 65.517 96.1226C65.2656 96.1377 65.0203 96.2021 64.7969 96.3118C64.5736 96.4215 64.3772 96.5739 64.2203 96.7592C64.0635 96.9446 63.9496 97.1588 63.8862 97.388C63.8228 97.6173 63.8112 97.8564 63.8521 98.0902C63.893 98.3239 63.9855 98.547 64.1237 98.745Z" fill="#E7E7E7"/>
<path d="M102.066 109.93C102.171 110.129 102.318 110.306 102.497 110.45C102.676 110.595 102.884 110.704 103.109 110.772C103.334 110.839 103.571 110.864 103.806 110.843C104.042 110.823 104.27 110.759 104.478 110.654C104.797 110.502 105.061 110.264 105.237 109.97C105.412 109.677 105.49 109.341 105.461 109.006C105.433 108.67 105.299 108.351 105.076 108.087C104.854 107.823 104.553 107.628 104.212 107.526C103.871 107.423 103.505 107.419 103.161 107.512C102.818 107.606 102.511 107.793 102.281 108.051C102.051 108.309 101.908 108.625 101.87 108.96C101.831 109.294 101.9 109.632 102.066 109.93Z" fill="#E7E7E7"/>
<path d="M113.961 74.2232C114.07 74.4208 114.219 74.5964 114.4 74.7397C114.582 74.8831 114.791 74.9915 115.017 75.0587C115.243 75.126 115.481 75.1507 115.717 75.1316C115.953 75.1124 116.182 75.0498 116.393 74.9472C116.814 74.7363 117.13 74.379 117.274 73.9516C117.418 73.5243 117.378 73.0609 117.163 72.6608C116.943 72.2615 116.562 71.961 116.106 71.8252C115.65 71.6895 115.155 71.7295 114.731 71.9367C114.306 72.1439 113.986 72.5012 113.842 72.93C113.698 73.3588 113.74 73.8239 113.961 74.2232Z" fill="#E7E7E7"/>
<path d="M76.0163 63.0766C76.1806 63.3743 76.4352 63.6195 76.7477 63.7811C77.0603 63.9428 77.4168 64.0137 77.7723 63.9849C78.1277 63.9561 78.4661 63.8288 78.7446 63.6192C79.0231 63.4096 79.2292 63.1271 79.3369 62.8074C79.4446 62.4876 79.449 62.145 79.3496 61.8229C79.2502 61.5008 79.0515 61.2137 78.7785 60.9978C78.5055 60.7819 78.1705 60.6469 77.8159 60.6099C77.4613 60.573 77.1031 60.6358 76.7864 60.7902C76.3656 61.0011 76.0494 61.3585 75.9054 61.7858C75.7615 62.2132 75.8013 62.6765 76.0163 63.0766Z" fill="#E7E7E7"/>
<path d="M78.8575 109.951C78.6491 110.573 78.6413 111.239 78.8355 111.865C79.0296 112.491 79.4169 113.048 79.9482 113.467C80.4795 113.886 81.131 114.148 81.8204 114.219C82.5098 114.29 83.206 114.167 83.8211 113.865C84.4362 113.564 84.9425 113.099 85.276 112.527C85.6095 111.955 85.7551 111.304 85.6946 110.654C85.6341 110.005 85.3701 109.387 84.9359 108.878C84.5018 108.37 83.917 107.994 83.2556 107.798C82.3686 107.54 81.4094 107.622 80.586 108.025C79.7627 108.428 79.1416 109.12 78.8575 109.951Z" fill="#E7E7E7"/>
<path d="M114.123 92.6483C113.915 93.2701 113.907 93.936 114.101 94.5619C114.295 95.1877 114.682 95.7454 115.214 96.1644C115.745 96.5834 116.397 96.8449 117.086 96.9158C117.775 96.9866 118.472 96.8638 119.087 96.5627C119.702 96.2616 120.208 95.7958 120.542 95.2241C120.875 94.6525 121.021 94.0008 120.96 93.3514C120.9 92.7019 120.636 92.0839 120.202 91.5755C119.767 91.0671 119.183 90.6912 118.521 90.4952C118.082 90.3625 117.619 90.313 117.16 90.3496C116.7 90.3862 116.253 90.5081 115.844 90.7083C115.435 90.9086 115.072 91.1832 114.777 91.5162C114.481 91.8492 114.259 92.234 114.123 92.6483Z" fill="#E7E7E7"/>
<path d="M95.7015 59.5148C95.4983 60.1365 95.4953 60.8008 95.6929 61.4241C95.8905 62.0474 96.2798 62.6019 96.8118 63.0177C97.3439 63.4334 97.9948 63.6919 98.6828 63.7606C99.3707 63.8293 100.065 63.7051 100.678 63.4038C101.291 63.1024 101.796 62.6372 102.128 62.0668C102.461 61.4965 102.606 60.8464 102.546 60.1985C102.487 59.5505 102.225 58.9336 101.793 58.4255C101.361 57.9173 100.779 57.5406 100.12 57.3428C99.2275 57.0802 98.2608 57.1615 97.4322 57.5688C96.6037 57.9761 95.9812 58.6761 95.7015 59.5148Z" fill="#E7E7E7"/>
<path d="M139.987 100.269C136.928 109.431 131.049 117.534 123.091 123.554C115.134 129.574 105.456 133.241 95.2822 134.09C85.1081 134.94 74.8945 132.934 65.9331 128.327C56.9716 123.719 49.6649 116.717 44.9367 108.206C40.2085 99.6942 38.2712 90.0559 39.37 80.5095C40.4688 70.9631 44.5542 61.9374 51.1096 54.5738C57.665 47.2102 66.3959 41.8394 76.1983 39.1406C86.0007 36.4418 96.4343 36.5362 106.18 39.4119C119.237 43.281 130.13 51.8609 136.468 63.2696C142.805 74.6783 144.071 87.9843 139.987 100.269ZM47.7063 73.0224C45.0369 81.0188 44.9498 89.5798 47.456 97.6227C49.9621 105.666 54.9489 112.829 61.7858 118.208C68.6228 123.587 77.0028 126.939 85.8662 127.84C94.7296 128.741 103.678 127.152 111.581 123.272C119.483 119.393 125.984 113.397 130.262 106.044C134.54 98.6911 136.402 90.3106 135.614 81.9626C134.825 73.6145 131.421 65.6737 125.832 59.1443C120.243 52.615 112.719 47.7903 104.214 45.2804C92.7961 41.9124 80.4235 42.9423 69.8132 48.1439C59.203 53.3455 51.2227 62.2935 47.6253 73.0224H47.7063Z" fill="#E7E7E7"/>
<path d="M177.116 111.245C171.747 127.324 161.426 141.546 147.46 152.111C133.493 162.675 116.507 169.11 98.6501 170.599C80.7934 172.089 62.8678 168.567 47.1402 160.479C31.4126 152.391 18.5895 140.101 10.2924 125.162C1.99527 110.223 -1.40316 93.3062 0.526906 76.5514C2.45697 59.7967 9.62892 43.9562 21.1356 31.0332C32.6423 18.1103 47.9669 8.68529 65.1716 3.95012C82.3763 -0.785052 100.688 -0.617706 117.792 4.43099C140.713 11.218 159.833 26.2772 170.955 46.3031C182.077 66.3289 184.293 89.6852 177.116 111.245ZM10.412 62.049C5.43491 76.9633 5.27386 92.9301 9.94935 107.93C14.6248 122.931 23.9269 136.291 36.6791 146.322C49.4314 156.352 65.0611 162.603 81.5921 164.283C98.123 165.963 114.813 162.997 129.551 155.761C144.289 148.524 156.413 137.342 164.391 123.627C172.369 109.913 175.842 94.283 174.371 78.7133C172.899 63.1436 166.55 48.3336 156.126 36.1561C145.701 23.9786 131.67 14.9805 115.806 10.2995C94.5295 4.04811 71.4845 5.98572 51.7262 15.6873C31.968 25.3888 17.11 42.062 10.412 62.049Z" fill="#E7E7E7"/>
<path d="M105.755 90.1898C104.813 93.0001 103.005 95.4847 100.561 97.3294C98.1165 99.1741 95.1453 100.296 92.0227 100.553C88.9002 100.811 85.7666 100.192 83.0182 98.7751C80.2697 97.3583 78.0298 95.2072 76.5817 92.5938C75.1337 89.9804 74.5425 87.0221 74.8828 84.0928C75.2231 81.1635 76.4796 78.3949 78.4936 76.1369C80.5076 73.879 83.1885 72.2331 86.1974 71.4074C89.2064 70.5818 92.4082 70.6133 95.398 71.4982C99.4054 72.6895 102.746 75.3265 104.688 78.8306C106.63 82.3348 107.013 86.4199 105.755 90.1898ZM81.7577 83.1018C81.2058 84.7515 81.1864 86.5179 81.7022 88.1779C82.218 89.8379 83.2457 91.3169 84.6554 92.4279C86.0651 93.5389 87.7936 94.2321 89.6223 94.4198C91.451 94.6075 93.2979 94.2812 94.9294 93.4824C96.561 92.6835 97.904 91.4479 98.7887 89.9317C99.6734 88.4155 100.06 86.6867 99.8997 84.9639C99.7394 83.2411 99.0395 81.6017 97.8883 80.2529C96.737 78.904 95.1864 77.9062 93.4321 77.3857C92.2663 77.0399 91.0394 76.9134 89.8216 77.0135C88.6038 77.1136 87.4189 77.4384 86.3347 77.9693C85.2505 78.5001 84.2882 79.2266 83.5028 80.1073C82.7175 80.988 82.1245 82.0056 81.7577 83.1018Z" fill="#E7E7E7"/>
<path d="M45.2535 75.0997C38.0061 76.8288 30.39 76.629 23.2566 74.5226C16.1231 72.4162 9.75344 68.4864 4.85938 63.1722L9.80477 59.1328C13.9088 63.5815 19.247 66.8708 25.2236 68.6337C31.2003 70.3967 37.5803 70.564 43.6522 69.1169L45.2535 75.0997Z" fill="#E7E7E7"/>
<path d="M78.7203 149.066C76.4838 155.772 72.3085 161.762 66.6608 166.366L62.3438 161.717C67.0797 157.862 70.5814 152.844 72.457 147.224C74.3326 141.605 74.5082 135.606 72.9642 129.898L79.3486 128.393C81.1704 135.206 80.9529 142.361 78.7203 149.066Z" fill="#E7E7E7"/>
<path d="M108.306 41.5447L101.942 43.0499C100.103 36.2368 100.315 29.0772 102.556 22.3711C104.796 15.6651 108.977 9.67699 114.63 5.07617L118.926 9.72522C114.192 13.582 110.692 18.6002 108.817 24.2192C106.941 29.8382 106.764 35.8367 108.306 41.5447Z" fill="#E7E7E7"/>
</svg>
