<svg width="114" height="200" viewBox="0 0 114 200" fill="none" xmlns="http://www.w3.org/2000/svg">
<path d="M-72 44.5566V199.214H113.533V44.5566H-72ZM-28.9711 170.825C-30.1466 168.653 -31.3829 166.385 -32.7409 164.27C-33.0151 163.811 -33.1025 163.274 -32.9869 162.759C-32.8714 162.243 -32.5607 161.785 -32.1126 161.469C-23.823 155.448 -15.0875 149.008 -6.83846 142.206C-4.05567 146.107 -0.369232 149.364 3.94412 151.733C-3.82014 161.026 -12.657 169.48 -22.4043 176.941C-22.6654 177.138 -22.9702 177.278 -23.2963 177.351C-23.6224 177.423 -23.9616 177.427 -24.2892 177.36C-24.6177 177.297 -24.9291 177.171 -25.2044 176.991C-25.4796 176.811 -25.713 176.58 -25.8903 176.312C-26.9848 174.635 -27.978 172.73 -28.9711 170.825ZM-23.8433 181.285C-22.3785 181.296 -20.9517 180.847 -19.7897 180.008C-9.15213 171.83 0.456436 162.535 8.84895 152.305L10.5312 150.399L8.13962 149.313C2.83186 146.899 -1.57638 143.034 -4.5076 138.224L-5.78449 136.109L-7.81129 137.729C-16.5063 145.026 -25.8701 151.924 -34.7272 158.383C-35.9962 159.287 -36.8654 160.6 -37.1683 162.07C-37.4713 163.539 -37.1867 165.062 -36.3689 166.347C-35.0921 168.252 -33.8962 170.52 -32.7612 172.635C-32.1937 173.664 -31.606 174.673 -31.0385 175.683C-43.1272 164.85 -51.0234 150.534 -53.4751 135.004C-52.4632 136.037 -51.1029 136.71 -49.6242 136.909C-44.184 137.533 -38.7078 137.838 -33.2273 137.824C-24.9776 137.753 -16.7375 137.276 -8.54091 136.395L-5.90609 136.128L-6.7776 133.785C-7.85795 130.881 -8.41287 127.829 -8.4193 124.753C-8.41509 122.312 -8.06067 119.883 -7.36546 117.532L-6.67628 115.188L-9.27065 115.036C-20.9855 114.407 -32.7815 113.13 -43.8478 111.74C-45.4251 111.535 -47.0273 111.884 -48.3475 112.721C-49.6678 113.558 -50.6131 114.823 -51.0024 116.274C-51.5902 118.542 -52.4009 120.866 -53.1711 123.134C-53.5562 124.258 -53.9007 125.382 -54.2858 126.525C-54.2858 125.934 -54.2858 125.344 -54.2858 124.753C-54.2727 109.643 -49.0691 94.9407 -39.4496 82.8353C-39.4602 84.2121 -38.9824 85.553 -38.0917 86.646C-29.3813 96.6432 -19.4952 105.681 -8.62206 113.588L-6.59526 115.15L-5.46026 112.902C-2.89082 107.918 1.22093 103.78 6.33573 101.031L8.58545 99.831L6.86272 97.9257C-0.94046 89.6945 -8.25713 80.9108 -15.1077 72.6225C-16.0669 71.4265 -17.4622 70.6056 -19.0257 70.3172C-20.5893 70.0289 -22.2111 70.2934 -23.5798 71.0601C-25.708 72.2796 -28.0387 73.4037 -30.3087 74.4898C-31.3829 75.0042 -32.3355 75.5568 -33.5111 76.0903C-21.9982 64.7129 -6.76433 57.2873 9.76103 54.998C8.69677 55.9616 8.01698 57.2396 7.83555 58.6182C6.45919 71.4699 6.64282 84.4271 8.38282 97.2397L8.6666 99.7167L11.1798 98.8974C16.7384 97.0476 22.7687 96.8546 28.4482 98.3449L30.9614 98.9736L31.1033 96.5538C31.7721 85.6361 33.1301 74.5088 34.6096 64.0484C34.8276 62.5657 34.456 61.0594 33.5659 59.8183C32.6758 58.5772 31.3298 57.6885 29.7858 57.3225C27.3739 56.7509 24.881 55.9888 22.4894 55.2647C21.2936 54.9027 20.0977 54.5788 18.9019 54.2358C19.5302 54.2358 20.1382 54.2358 20.7665 54.2358C36.8419 54.255 52.481 59.1534 65.3561 68.2021C63.89 68.1832 62.4607 68.6334 61.3025 69.4787C50.664 77.6557 41.0493 86.9437 32.6437 97.1635L30.9817 99.0689L33.3733 100.155C38.6779 102.557 43.0812 106.418 46.0002 111.225L47.2974 113.359L49.2229 111.72C57.9989 104.366 67.3424 97.4875 76.1387 91.0855C77.411 90.1837 78.2842 88.8721 78.5909 87.4022C78.8977 85.9324 78.6163 84.4078 77.8007 83.1211C76.5036 81.2157 75.3078 78.9102 74.1525 76.7762C73.6053 75.7664 73.0174 74.8709 72.4499 73.7848C84.5523 84.6002 92.4516 98.9154 94.8866 114.445C93.8669 113.449 92.5151 112.81 91.0559 112.635C77.378 111.338 63.5871 111.517 49.9525 113.169L47.3177 113.416L48.1892 115.779C50.1822 121 50.3877 126.676 48.7769 132.013L48.108 134.375L50.7024 134.509C62.4173 135.137 74.193 136.414 85.2593 137.805C85.5427 137.824 85.8271 137.824 86.1105 137.805C87.5595 137.816 88.9705 137.37 90.1172 136.537C91.264 135.704 92.08 134.534 92.4343 133.213C93.022 130.946 93.8327 128.602 94.6231 126.315C95.0082 125.21 95.3326 124.105 95.6974 122.981C95.6974 123.572 95.6974 124.143 95.6974 124.734C95.6814 139.847 90.4702 154.55 80.8409 166.652C80.8675 165.273 80.388 163.927 79.483 162.841C70.79 152.841 60.9093 143.808 50.0335 135.919L48.0067 134.356L46.8514 136.585C44.3023 141.576 40.1942 145.717 35.0757 148.456L32.8057 149.675L34.5489 151.485C42.3318 159.697 49.6687 168.5 56.499 176.807C57.1137 177.551 57.9002 178.154 58.7991 178.57C59.698 178.986 60.6857 179.204 61.6876 179.208C62.8459 179.217 63.9836 178.92 64.971 178.351C66.9978 177.15 69.43 176.026 71.6797 174.94C72.7742 174.426 73.8485 173.873 74.9227 173.321C63.4023 184.692 48.1731 192.122 31.6504 194.432C32.7494 193.481 33.4653 192.202 33.6772 190.812C35.0575 177.96 34.8671 165.002 33.1098 152.19L32.8463 149.713L30.3331 150.533C24.7743 152.381 18.7444 152.574 13.0647 151.085L10.6731 150.437L10.5312 152.876C9.86238 163.889 8.50446 174.978 7.0249 185.382C6.80686 186.864 7.17849 188.371 8.06861 189.612C8.95872 190.853 10.3048 191.742 11.8487 192.107C14.2403 192.66 16.7332 193.422 19.1451 194.165C20.3409 194.527 21.5368 194.832 22.7326 195.175C22.1043 195.175 21.4963 195.27 20.868 195.27C4.7935 195.265 -10.848 190.372 -23.7216 181.323L-23.8433 181.285ZM-11.4798 132.603C-23.9626 134.002 -36.5717 134.098 -49.0769 132.889C-49.408 132.845 -49.7253 132.736 -50.0083 132.568C-50.2912 132.401 -50.5333 132.179 -50.7186 131.917C-50.9087 131.656 -51.0361 131.358 -51.0921 131.046C-51.1481 130.733 -51.1314 130.413 -51.043 130.107C-50.4957 128.202 -49.8269 126.201 -49.1378 124.239C-48.3473 121.914 -47.5163 119.513 -46.8678 117.094C-46.7428 116.632 -46.4532 116.226 -46.0473 115.941C-45.6415 115.657 -45.144 115.512 -44.6382 115.531H-44.3343C-33.957 116.77 -22.9718 118.027 -11.9055 118.713C-12.3075 120.659 -12.5111 122.637 -12.5135 124.62C-12.5437 127.35 -12.1962 130.072 -11.4798 132.718V132.603ZM-34.1394 80.7775C-32.2747 79.7676 -30.3291 78.8721 -28.3834 77.9004C-26.0525 76.7953 -23.6609 75.633 -21.3909 74.3374C-21.0625 74.146 -20.6828 74.0468 -20.2964 74.0516C-19.9309 74.058 -19.5715 74.1419 -19.2452 74.297C-18.9188 74.452 -18.6338 74.6742 -18.4114 74.9471C-12.027 82.7019 -5.19671 90.8949 2.07951 98.7069C-2.06441 101.321 -5.52827 104.779 -8.0545 108.824C-17.9403 101.526 -26.9336 93.2188 -34.869 84.0547C-35.0807 83.8063 -35.2306 83.5166 -35.3078 83.2067C-35.385 82.8968 -35.3874 82.5745 -35.315 82.2636C-35.241 81.9571 -35.0977 81.6692 -34.8949 81.4193C-34.692 81.1695 -34.4344 80.9636 -34.1394 80.8156V80.7775ZM14.9496 57.132C16.9764 57.6464 19.0033 58.2943 21.1922 58.923C23.6649 59.6852 26.2389 60.4664 28.7927 61.057C29.3358 61.1922 29.8055 61.5136 30.1093 61.9578C30.4131 62.4021 30.5291 62.9372 30.4344 63.4578C29.117 73.2323 27.7793 83.5974 27.0497 93.9435C22.1593 93.0274 17.1101 93.1839 12.2945 94.4008C10.8069 82.6659 10.705 70.8123 11.9906 59.0564C12.0347 58.7418 12.1497 58.4397 12.3279 58.1703C12.5062 57.9008 12.7435 57.6703 13.0241 57.494C13.414 57.2482 13.8722 57.1157 14.3416 57.1129C14.5462 57.103 14.7512 57.1223 14.9496 57.1701V57.132ZM70.484 78.4339C71.6595 80.625 72.8959 82.8924 74.2741 85.0074C74.5527 85.4655 74.6425 86.0038 74.5267 86.5202C74.4109 87.0365 74.0974 87.4949 73.6458 87.8082C65.3764 93.8101 56.6815 100.212 48.3514 107.071C45.5596 103.185 41.8834 99.9309 37.5891 97.5446C45.3576 88.2555 54.194 79.8015 63.9375 72.3367C64.2066 72.1468 64.5157 72.0128 64.8442 71.9438C65.1727 71.8748 65.513 71.8724 65.8425 71.9366C66.1719 71.991 66.4844 72.1132 66.7577 72.2944C67.031 72.4755 67.2584 72.7112 67.4235 72.9846C68.4977 74.8137 69.4503 76.6428 70.484 78.472V78.4339ZM52.9927 116.693C65.4749 115.285 78.0851 115.19 90.5898 116.408C90.9256 116.445 91.2485 116.552 91.5357 116.72C91.8228 116.888 92.0673 117.113 92.2518 117.379C92.4427 117.637 92.5708 117.931 92.6269 118.241C92.6829 118.55 92.6655 118.868 92.576 119.17C92.0288 121.076 91.3397 122.981 90.6708 125.001C89.8804 127.344 89.0291 129.764 88.4008 132.184C88.2571 132.696 87.9162 133.139 87.4442 133.428C86.9723 133.717 86.4032 133.83 85.8472 133.746C75.4902 132.508 64.505 131.25 53.4184 130.564C53.8371 128.614 54.0476 126.629 54.0467 124.639C54.0649 121.971 53.7105 119.313 52.9927 116.732V116.693ZM75.6523 168.519C73.7877 169.529 71.8419 170.425 69.8961 171.396C67.5856 172.501 65.1738 173.664 62.9241 174.94C62.4379 175.206 61.8638 175.293 61.3133 175.184C60.7628 175.075 60.2751 174.778 59.9446 174.35C53.5399 166.576 46.7096 158.383 39.4537 150.571C43.6063 147.967 47.0723 144.506 49.5877 140.453C59.4688 147.756 68.4615 156.063 76.4022 165.223C76.6033 165.477 76.7467 165.767 76.8234 166.075C76.9001 166.383 76.9086 166.703 76.8482 167.014C76.7815 167.338 76.6398 167.644 76.4331 167.911C76.2265 168.178 75.9599 168.398 75.6523 168.557V168.519ZM26.5834 192.146C24.5566 191.631 22.4286 191.002 20.341 190.355C17.8683 189.611 15.2943 188.811 12.7405 188.24C12.2008 188.097 11.7346 187.775 11.4288 187.333C11.1231 186.892 10.9986 186.36 11.0785 185.839C12.3959 176.102 13.7336 165.756 14.4632 155.353C19.3542 156.262 24.4016 156.105 29.2184 154.896C30.7162 166.63 30.8181 178.485 29.5223 190.24C29.4793 190.553 29.3647 190.852 29.1862 191.119C29.0077 191.385 28.7696 191.612 28.4886 191.784C28.2227 191.979 27.9138 192.117 27.5842 192.186C27.2546 192.255 26.9127 192.254 26.5834 192.184V192.146ZM109.317 195.232H46.0408C63.8685 189.596 78.9841 178.185 88.688 163.038C98.3918 147.891 102.052 129.995 99.0141 112.545C95.9764 95.0953 86.4391 79.229 72.1054 67.7801C57.7718 56.3312 39.5754 50.0454 20.7665 50.0454C1.9577 50.0454 -16.2386 56.3312 -30.5722 67.7801C-44.9059 79.229 -54.4433 95.0953 -57.481 112.545C-60.5187 129.995 -56.8587 147.891 -47.1549 163.038C-37.451 178.185 -22.3353 189.596 -4.5076 195.232H-67.8045V48.5198H109.317V195.232Z" fill="#E7E7E7"/>
<path d="M47.6217 124.677C47.6377 119.675 46.0737 114.78 43.1277 110.614C40.1817 106.448 35.9862 103.198 31.0733 101.276C26.1603 99.3533 20.751 98.8454 15.5307 99.8163C10.3104 100.787 5.51416 103.193 1.74989 106.729C-2.01439 110.265 -4.57726 114.772 -5.61396 119.679C-6.65067 124.586 -6.11451 129.671 -4.07345 134.291C-2.03239 138.911 1.42174 142.858 5.85111 145.63C10.2805 148.403 15.4857 149.877 20.8072 149.866C27.9104 149.851 34.7184 147.193 39.7431 142.473C44.7677 137.753 47.6003 131.355 47.6217 124.677ZM-1.9133 124.677C-1.90128 120.464 -0.561913 116.349 1.93569 112.851C4.4333 109.354 7.97727 106.63 12.1202 105.024C16.2631 103.418 20.8192 103.001 25.2136 103.827C29.6079 104.653 33.6434 106.685 36.8108 109.665C39.9781 112.645 42.1354 116.441 43.0102 120.572C43.8849 124.704 43.438 128.987 41.7259 132.88C40.0137 136.773 37.1131 140.103 33.39 142.447C29.667 144.792 25.2885 146.048 20.8072 146.055C17.821 146.058 14.8637 145.506 12.1046 144.433C9.34548 143.359 6.83881 141.784 4.72823 139.798C2.61765 137.812 0.944649 135.454 -0.195021 132.86C-1.33469 130.265 -1.91863 127.484 -1.9133 124.677Z" fill="#E7E7E7"/>
<path d="M110.597 33.7501C110.586 30.7987 109.333 27.9714 107.111 25.8863C104.889 23.8011 101.88 22.6278 98.7402 22.6228H37.2674L36.781 20.3364C36.5238 19.1342 35.8325 18.0525 34.824 17.2747C33.8156 16.4968 32.5522 16.0707 31.2478 16.0684H10.2704C8.97411 16.0697 7.71806 16.4911 6.71383 17.2616C5.70959 18.0322 5.01865 19.1046 4.75754 20.2983L4.27113 22.5847H-57.2017C-60.3428 22.5847 -63.3556 23.7564 -65.5786 25.8426C-67.8016 27.9289 -69.0532 30.7591 -69.0586 33.712V41.0095H110.597V33.7501ZM106.381 37.1035H-64.8631V33.7501C-64.8577 31.8432 -64.0482 30.0162 -62.612 28.6696C-61.1758 27.3231 -59.2301 26.5669 -57.2017 26.5669H8.24358V24.6615C8.24358 24.5281 8.24358 24.3567 8.24358 24.4329L8.93274 21.1938C8.99786 20.8894 9.1723 20.6153 9.42695 20.4175C9.68159 20.2198 10.001 20.1104 10.3312 20.1077H31.3086C31.6413 20.1095 31.9635 20.2182 32.2215 20.4158C32.4796 20.6133 32.658 20.8878 32.7273 21.1938L33.3759 24.2233V26.6431H98.8416C100.868 26.6431 102.812 27.3999 104.245 28.747C105.678 30.0941 106.483 31.9212 106.483 33.8263L106.381 37.1035Z" fill="#E7E7E7"/>
<path d="M4.39192 14.7933H37.1247C38.9577 14.7933 40.7157 14.1088 42.0118 12.8903C43.3079 11.6718 44.0361 10.0192 44.0361 8.29603V6.65742C44.0361 4.93424 43.3079 3.28163 42.0118 2.06316C40.7157 0.844684 38.9577 0.160156 37.1247 0.160156H4.39192C2.55891 0.160156 0.800931 0.844684 -0.495206 2.06316C-1.79134 3.28163 -2.51953 4.93424 -2.51953 6.65742V8.29603C-2.51953 10.0192 -1.79134 11.6718 -0.495206 12.8903C0.800931 14.1088 2.55891 14.7933 4.39192 14.7933ZM1.69625 6.65742C1.69623 5.98357 1.97954 5.33703 2.4845 4.85876C2.98946 4.38049 3.67514 4.10927 4.39192 4.10424H37.1247C37.4813 4.10424 37.8345 4.17028 38.164 4.29859C38.4935 4.4269 38.7929 4.61496 39.0451 4.85205C39.2973 5.08913 39.4974 5.3706 39.6339 5.68037C39.7704 5.99013 39.8406 6.32213 39.8406 6.65742V8.29603C39.8195 8.95988 39.5241 9.58988 39.017 10.0523C38.5099 10.5148 37.8311 10.7733 37.1247 10.773H4.39192C3.67514 10.768 2.98946 10.4967 2.4845 10.0185C1.97954 9.54021 1.69623 8.89367 1.69625 8.21982V6.65742Z" fill="#E7E7E7"/>
</svg>
